<svg xmlns="http://www.w3.org/2000/svg" version="1.1" xmlns:xlink="http://www.w3.org/1999/xlink" xmlns:svgjs="http://svgjs.dev/svgjs" width="128" height="128" viewBox="0 0 128 128"><g transform="matrix(0.8046875,0,0,0.8046875,10.90509828528085,12.401287678032276)"><svg viewBox="0 0 99 97" data-background-color="#e9efe7" preserveAspectRatio="xMidYMid meet" height="125" width="128" xmlns="http://www.w3.org/2000/svg" xmlns:xlink="http://www.w3.org/1999/xlink"><g id="tight-bounds" transform="matrix(1,0,0,1,1.759514881757383,1.5834631419945424)"><svg viewBox="0 0 95.481 95.48097002803415" height="95.48097002803415" width="95.481"><g><svg viewBox="0 0 95.481 95.48097002803415" height="95.48097002803415" width="95.481"><g><svg viewBox="0 0 95.481 95.48097002803415" height="95.48097002803415" width="95.481"><g id="textblocktransform"><svg viewBox="0 0 95.481 95.48097002803415" height="95.48097002803415" width="95.481" id="textblock"><g><svg viewBox="0 0 95.481 95.48097002803415" height="95.48097002803415" width="95.481"><g><svg viewBox="0 0 95.481 95.48097002803415" height="95.48097002803415" width="95.481"><g><svg xmlns="http://www.w3.org/2000/svg" viewBox="1.9999998929224292 2 60.00001883430751 60" x="0" y="0" height="95.48097002803415" width="95.481" class="icon-icon-0" data-fill-palette-color="accent" id="icon-0"><path d="M59.6 11.5A3 3 0 0 1 60 13V43H4V13A3 3 0 0 1 6.249 10.094L5.749 8.158A5 5 0 0 0 2 13V48A5.006 5.006 0 0 0 7 53H25.613L23.28 60H21V62H43V60H40.72L38.387 53H57A5.006 5.006 0 0 0 62 48V13A5 5 0 0 0 61.33 10.5ZM38.612 60H25.388L27.721 53H36.279ZM60 48A3 3 0 0 1 57 51H7A3 3 0 0 1 4 48V45H60Z" fill="#2a2c35" data-fill-palette-color="accent"></path><path d="M58.75 2A3.26 3.26 0 0 0 56.801 2.65L55 4A5.01 5.01 0 0 0 51 2H13A5.006 5.006 0 0 0 8 7V41H10V7A3 3 0 0 1 13 4H51A3 3 0 0 1 53.38 5.216L43.851 12.363A39.7 39.7 0 0 0 33.279 24.263L26.5 28.132A1 1 0 0 0 26 28.89L25 37.89A1 1 0 0 0 26 39 1 1 0 0 0 26.11 38.994L35.11 37.994A1 1 0 0 0 35.868 37.494L39.74 30.719A39.7 39.7 0 0 0 51.64 20.148L54 17V41H56V14.333L61.35 7.2A3.25 3.25 0 0 0 58.75 2M34.384 36.062L28.723 36.691 31.489 33.925A2 2 0 0 0 32 34 2 2 0 1 0 30 32 2 2 0 0 0 30.075 32.511L27.309 35.277 27.937 29.616 33.837 26.247 37.757 30.167ZM39.161 28.747L37.207 26.793 35.253 24.838C35.523 24.387 35.806 23.945 36.093 23.507L40.493 27.907C40.055 28.194 39.613 28.477 39.161 28.747M59.75 6L50.037 18.95A37.7 37.7 0 0 1 42.166 26.75L37.249 21.833A37.7 37.7 0 0 1 45.049 13.96L58 4.249A1.25 1.25 0 0 1 59.75 6" fill="#2a2c35" data-fill-palette-color="accent"></path><path d="M44.539 16.928L45.839 18.452Q46.623 17.786 47.455 17.163L46.255 15.563Q45.372 16.221 44.539 16.928" fill="#2a2c35" data-fill-palette-color="accent"></path><path d="M40 21.55L41.549 22.817A34 34 0 0 1 44.391 19.752L43.008 18.3A36 36 0 0 0 40 21.55" fill="#2a2c35" data-fill-palette-color="accent"></path><rect x="13" y="7" width="2" height="2" fill="#2a2c35" data-fill-palette-color="accent"></rect><rect x="17" y="7" width="2" height="2" fill="#2a2c35" data-fill-palette-color="accent"></rect><rect x="21" y="7" width="2" height="2" fill="#2a2c35" data-fill-palette-color="accent"></rect><rect x="13" y="12" width="26" height="2" fill="#2a2c35" data-fill-palette-color="accent"></rect><rect x="21" y="17" width="13" height="2" fill="#2a2c35" data-fill-palette-color="accent"></rect><rect x="13" y="22" width="18" height="2" fill="#2a2c35" data-fill-palette-color="accent"></rect><rect x="13" y="27" width="11" height="2" fill="#2a2c35" data-fill-palette-color="accent"></rect><rect x="13" y="32" width="10" height="2" fill="#2a2c35" data-fill-palette-color="accent"></rect><rect x="13" y="37" width="10" height="2" fill="#2a2c35" data-fill-palette-color="accent"></rect><rect x="47" y="27" width="4" height="2" fill="#2a2c35" data-fill-palette-color="accent"></rect><rect x="41" y="32" width="10" height="2" fill="#2a2c35" data-fill-palette-color="accent"></rect><rect x="39" y="37" width="12" height="2" fill="#2a2c35" data-fill-palette-color="accent"></rect><rect x="13" y="17" width="6" height="2" fill="#2a2c35" data-fill-palette-color="accent"></rect></svg></g></svg></g></svg></g></svg></g></svg></g></svg></g><defs></defs></svg><rect width="95.481" height="95.48097002803415" fill="none" stroke="none" visibility="hidden"></rect></g></svg></g></svg>