<svg xmlns="http://www.w3.org/2000/svg" version="1.1" xmlns:xlink="http://www.w3.org/1999/xlink" xmlns:svgjs="http://svgjs.dev/svgjs" width="1500" height="1500" viewBox="0 0 1500 1500"><rect width="1500" height="1500" fill="#000000"></rect><g transform="matrix(0.6666666666666666,0,0,0.6666666666666666,249.3942385577389,606.2573934297126)"><svg viewBox="0 0 396 114" data-background-color="#e9efe7" preserveAspectRatio="xMidYMid meet" height="431" width="1500" xmlns="http://www.w3.org/2000/svg" xmlns:xlink="http://www.w3.org/1999/xlink"><g id="tight-bounds" transform="matrix(1,0,0,1,0.23988153113538146,0.030129288907545515)"><svg viewBox="0 0 395.52 113.93950448445558" height="113.93950448445558" width="395.52"><g><svg viewBox="0 0 587.7966788764345 169.32964787820998" height="113.93950448445558" width="395.52"><g transform="matrix(1,0,0,1,0,49.69820334850104)"><svg viewBox="0 0 395.52 69.9332411812079" height="69.9332411812079" width="395.52"><g id="textblocktransform"><svg viewBox="0 0 395.52 69.9332411812079" height="69.9332411812079" width="395.52" id="textblock"><g><svg viewBox="0 0 395.52 48.600939947780674" height="48.600939947780674" width="395.52"><g transform="matrix(1,0,0,1,0,0)"><svg width="395.52" viewBox="1.5 -37.1 304.91999999999996 37.65" height="48.600939947780674" data-palette-color="#2a2c35"><g class="wordmark-text-0" data-fill-palette-color="primary" id="text-0"><path d="M14.65 0.55L14.65 0.55Q9.1 0.55 5.3-4.1 1.5-8.75 1.5-15.5L1.5-15.5Q1.5-23.75 6.08-29.4 10.65-35.05 17.3-35.05L17.3-35.05Q19.9-35.05 22.13-34.52 24.35-34 25.3-33.45L25.3-33.45 26.2-32.9 22.8-25.95Q21.65-26.95 19.55-27.83 17.45-28.7 15.75-28.7L15.75-28.7Q12.3-28.7 10.23-25.85 8.15-23 8.15-17.73 8.15-12.45 10.3-9.08 12.45-5.7 16.15-5.7L16.15-5.7Q18.55-5.7 20.5-7.2 22.45-8.7 23.25-11.2L23.25-11.2 27.4-8.8Q25.75-4.4 22.35-1.93 18.95 0.55 14.65 0.55ZM29.9-24.15L29.9-24.15 35.95-25.45Q36.4-21.6 36.55-18.15L36.55-18.15Q41.1-25.2 45.1-25.2L45.1-25.2 44.55-17.4Q41.65-17.4 39.97-16.88 38.3-16.35 36.55-14.8L36.55-14.8 36.55-13 37.1-1.25 30.4 0 31-12.15Q30.8-18.85 29.9-24.15ZM57.24-5.1L57.24-5.1Q58.7-5.1 60.3-5.85 61.89-6.6 62.8-7.35L62.8-7.35 63.7-8.1 66-5.3Q65.5-4.45 64.44-3.35 63.39-2.25 62.32-1.48 61.24-0.7 59.47-0.08 57.7 0.55 55.8 0.55L55.8 0.55Q51.74 0.55 49.2-2.53 46.64-5.6 46.64-10.45L46.64-10.45Q46.64-16.55 50.2-21.15 53.74-25.75 58.49-25.75L58.49-25.75Q62.14-25.75 64.17-23.7 66.19-21.65 66.19-17.95L66.19-17.95Q66.19-15.75 65.44-12.95L65.44-12.95 64.44-11.9 51.95-10.75Q52.8-5.1 57.24-5.1ZM57.24-20.6L57.24-20.6Q55.05-20.6 53.55-18.82 52.05-17.05 51.8-14.3L51.8-14.3 60.3-15.35Q60.45-16.5 60.45-17.25L60.45-17.25Q60.45-20.6 57.24-20.6ZM75.54 0Q72.59 0 70.72-1.88 68.84-3.75 68.84-6.93 68.84-10.1 71.74-12.43 74.64-14.75 78.79-14.75L78.79-14.75 82.19-14.75 82.19-15.6Q82.19-18.05 81.19-18.95 80.19-19.85 77.44-19.85L77.44-19.85Q76.29-19.85 74.72-19.38 73.14-18.9 71.19-17.9L71.19-17.9 69.74-21.85Q71.89-23.35 74.97-24.55 78.04-25.75 80.04-25.75L80.04-25.75Q87.89-25.75 87.89-18.15L87.89-18.15 87.89-8.35Q87.89-5.55 89.64-2.1L89.64-2.1 84.34 0.15Q83.09-2.25 82.49-4.15L82.49-4.15Q79.74 0 75.54 0L75.54 0ZM77.64-5.1L77.64-5.1Q79.64-5.1 82.19-7.15L82.19-7.15 82.19-10.5Q79.54-11.1 77.89-11.1L77.89-11.1Q74.74-11.1 74.74-8.3L74.74-8.3Q74.74-6.85 75.54-5.98 76.34-5.1 77.64-5.1ZM93.04-24.2L95.94-24.2 95.94-29.65 102.69-30.95 102.04-24.2 108.09-24.2 107.54-20.1 101.84-20.1 101.59-9.65Q101.59-7.3 102.04-6.53 102.49-5.75 103.69-5.75 104.89-5.75 106.89-6.3L106.89-6.3 107.19-2.75Q103.89 0 101.39 0 98.89 0 97.29-1.83 95.69-3.65 95.69-6.6L95.69-6.6 95.99-12.2 95.94-20.1 92.49-20.1 93.04-24.2ZM111.74-24.2L118.44-25.45 117.84-13 118.39-1.25 111.69 0 112.29-12.15 111.74-24.2ZM111.39-32.77Q111.39-34.45 112.69-35.77 113.99-37.1 115.69-37.1 117.39-37.1 118.29-36.18 119.19-35.25 119.19-33.4 119.19-31.55 117.91-30.23 116.64-28.9 114.96-28.9 113.29-28.9 112.34-30 111.39-31.1 111.39-32.77ZM130.59-14.4L132.44-6.25 133.09-6.25 134.74-13.1 137.44-25.45 143.64-24.7 139.89-12.3 136.74-0.6 128.19 0.15 125.24-12 121.64-24.15 128.44-25.4 130.59-14.4ZM155.93-5.1L155.93-5.1Q157.38-5.1 158.98-5.85 160.58-6.6 161.48-7.35L161.48-7.35 162.38-8.1 164.68-5.3Q164.18-4.45 163.13-3.35 162.08-2.25 161.01-1.48 159.93-0.7 158.16-0.08 156.38 0.55 154.48 0.55L154.48 0.55Q150.43 0.55 147.88-2.53 145.33-5.6 145.33-10.45L145.33-10.45Q145.33-16.55 148.88-21.15 152.43-25.75 157.18-25.75L157.18-25.75Q160.83-25.75 162.86-23.7 164.88-21.65 164.88-17.95L164.88-17.95Q164.88-15.75 164.13-12.95L164.13-12.95 163.13-11.9 150.63-10.75Q151.48-5.1 155.93-5.1ZM155.93-20.6L155.93-20.6Q153.73-20.6 152.23-18.82 150.73-17.05 150.48-14.3L150.48-14.3 158.98-15.35Q159.13-16.5 159.13-17.25L159.13-17.25Q159.13-20.6 155.93-20.6Z" fill="#ffffff" data-fill-palette-color="primary"></path><path d="M202.48-15.5L204.63-6.25 205.18-6.25 207.53-14.85 212.33-34.8 217.98-33.9 212.53-14.05 209.18-0.4 200.03 0.25 197.18-13.1 195.48-19.7 193.98-14.05 190.63-0.4 181.63 0.25 178.63-13.1 173.43-33.55 179.93-34.8 183.98-15.5 186.23-6.25 186.78-6.25 189.43-15.5 193.08-29 191.93-33.55 198.53-34.8 202.48-15.5ZM221.18-24.15L221.18-24.15 227.22-25.45Q227.68-21.6 227.83-18.15L227.83-18.15Q232.38-25.2 236.38-25.2L236.38-25.2 235.82-17.4Q232.93-17.4 231.25-16.88 229.57-16.35 227.83-14.8L227.83-14.8 227.83-13 228.38-1.25 221.68 0 222.28-12.15Q222.08-18.85 221.18-24.15ZM239.52-24.2L246.22-25.45 245.62-13 246.17-1.25 239.47 0 240.07-12.15 239.52-24.2ZM239.17-32.77Q239.17-34.45 240.47-35.77 241.77-37.1 243.47-37.1 245.17-37.1 246.07-36.18 246.97-35.25 246.97-33.4 246.97-31.55 245.7-30.23 244.42-28.9 242.75-28.9 241.07-28.9 240.12-30 239.17-31.1 239.17-32.77ZM250.77-24.2L253.67-24.2 253.67-29.65 260.42-30.95 259.77-24.2 265.82-24.2 265.27-20.1 259.57-20.1 259.32-9.65Q259.32-7.3 259.77-6.53 260.22-5.75 261.42-5.75 262.62-5.75 264.62-6.3L264.62-6.3 264.92-2.75Q261.62 0 259.12 0 256.62 0 255.02-1.83 253.42-3.65 253.42-6.6L253.42-6.6 253.72-12.2 253.67-20.1 250.22-20.1 250.77-24.2ZM278.47-5.1L278.47-5.1Q279.92-5.1 281.52-5.85 283.12-6.6 284.02-7.35L284.02-7.35 284.92-8.1 287.22-5.3Q286.72-4.45 285.67-3.35 284.62-2.25 283.54-1.48 282.47-0.7 280.69-0.08 278.92 0.55 277.02 0.55L277.02 0.55Q272.97 0.55 270.42-2.53 267.87-5.6 267.87-10.45L267.87-10.45Q267.87-16.55 271.42-21.15 274.97-25.75 279.72-25.75L279.72-25.75Q283.37-25.75 285.39-23.7 287.42-21.65 287.42-17.95L287.42-17.95Q287.42-15.75 286.67-12.95L286.67-12.95 285.67-11.9 273.17-10.75Q274.02-5.1 278.47-5.1ZM278.47-20.6L278.47-20.6Q276.27-20.6 274.77-18.82 273.27-17.05 273.02-14.3L273.02-14.3 281.52-15.35Q281.67-16.5 281.67-17.25L281.67-17.25Q281.67-20.6 278.47-20.6ZM291.22-24.15L291.22-24.15 297.27-25.45Q297.72-21.6 297.87-18.15L297.87-18.15Q302.42-25.2 306.42-25.2L306.42-25.2 305.87-17.4Q302.97-17.4 301.29-16.88 299.62-16.35 297.87-14.8L297.87-14.8 297.87-13 298.42-1.25 291.72 0 292.32-12.15Q292.12-18.85 291.22-24.15Z" fill="#ffffff" data-fill-palette-color="primary"></path></g></svg></g></svg></g><g transform="matrix(1,0,0,1,163.310208,60.07445544689294)"><svg viewBox="0 0 232.209792 9.858785734314965" height="9.858785734314965" width="232.209792"><g transform="matrix(1,0,0,1,0,0)"><svg width="232.209792" viewBox="1.34 -36.84 1137.3100000000002 48.290000000000006" height="9.858785734314965" data-palette-color="#2a2c35"><path d="M25.66-9.3L25.66 0 1.34 0 1.34-2.15 4.25-2.34Q4.79-2.39 5.04-2.73 5.3-3.08 5.3-3.44L5.3-3.44 5.3-30.1Q5.3-30.47 5.04-30.82 4.79-31.18 4.25-31.2L4.25-31.2 1.34-31.4 1.34-33.54 14.11-33.54 14.11-31.4 11.45-31.2Q10.91-31.18 10.63-30.82 10.35-30.47 10.35-30.1L10.35-30.1 10.35-2.44 20.85-2.44Q21.19-2.44 21.56-2.71 21.92-2.98 21.95-3.3L21.95-3.3 22.75-9.3 25.66-9.3ZM52.54-24.1L52.54-22.14 49.92-21.85 40.33 1.54Q40.01 2.34 39.34 3.85 38.67 5.35 37.75 6.92 36.84 8.5 35.79 9.55L35.79 9.55Q34.89 10.45 33.8 10.95 32.71 11.45 31.44 11.45L31.44 11.45Q29.66 11.45 28.72 10.58 27.78 9.72 27.78 8.59L27.78 8.59Q27.78 6.93 29.39 5.59L29.39 5.59 34.08 7.74Q34.91 6.91 35.74 5.49 36.57 4.08 37.24 2.56 37.91 1.05 38.28-0.05L38.28-0.05 29.78-21.85 27.02-22.14 27.02-24.1 38.08-24.1 38.08-22.14 35.69-22Q34.89-21.92 34.89-21.19L34.89-21.19Q34.89-21 34.93-20.9L34.93-20.9 40.74-6.15 46.68-20.9Q46.75-21.04 46.75-21.22L46.75-21.22Q46.75-21.95 45.99-22L45.99-22 43.63-22.14 43.63-24.1 52.54-24.1ZM72.07-23.95L72.07-18.99 70.11-18.99Q69.65-19.56 69-19.96 68.35-20.36 67.43-20.36L67.43-20.36Q66.23-20.36 64.97-19.53 63.72-18.7 62.42-17.26L62.42-17.26 62.42-3.2Q62.42-2.15 63.47-2.1L63.47-2.1 66.77-1.95 66.77 0 54.27 0 54.27-1.9 56.73-2.1Q57.17-2.15 57.48-2.44 57.78-2.73 57.78-3.2L57.78-3.2 57.78-20.56 54.17-20.56 54.17-22.19 60.37-24.1 62.42-24.1 62.42-19.65Q63.15-20.46 64.25-21.66 65.35-22.85 66.6-23.78 67.84-24.71 69.01-24.71L69.01-24.71Q69.79-24.71 70.7-24.46 71.6-24.22 72.07-23.95L72.07-23.95ZM83.46-32.35L83.46-32.35Q83.46-31.08 82.59-30.16 81.71-29.25 80.44-29.25L80.44-29.25Q79.17-29.25 78.25-30.16 77.34-31.08 77.34-32.35L77.34-32.35Q77.34-33.64 78.25-34.52 79.17-35.4 80.44-35.4L80.44-35.4Q81.71-35.4 82.59-34.52 83.46-33.64 83.46-32.35ZM86.03-1.95L86.03 0 74.28 0 74.28-1.95 76.73-2.1Q77.78-2.17 77.78-3.2L77.78-3.2 77.78-21.04 74.33-21.04 74.33-22.8 80.44-24.71 82.41-24.71 82.41-3.2Q82.41-2.73 82.72-2.44 83.02-2.15 83.46-2.1L83.46-2.1 86.03-1.95ZM109.34-4.71L109.34-4.71 109.34-1.86Q107.66-0.95 105.54-0.17 103.43 0.61 100.89 0.61L100.89 0.61Q97.4 0.61 94.83-1.03 92.25-2.66 90.85-5.48 89.44-8.3 89.44-11.89L89.44-11.89Q89.44-16.09 91.12-18.95 92.79-21.8 95.53-23.25 98.28-24.71 101.48-24.71L101.48-24.71Q104.78-24.71 107.01-23.43 109.24-22.14 109.24-19.7L109.24-19.7Q109.24-18.24 108.33-17.49 107.41-16.75 106.29-16.75L106.29-16.75Q105.46-16.75 104.85-17.03 104.24-17.31 103.77-17.6L103.77-17.6 103.77-21.95Q102.63-22.61 101.67-22.61L101.67-22.61Q99.45-22.61 97.85-21.3 96.25-20 95.4-17.72 94.55-15.45 94.55-12.55L94.55-12.55Q94.55-9.79 95.47-7.51 96.4-5.22 98.24-3.88 100.09-2.54 102.82-2.54L102.82-2.54Q104.56-2.54 106.14-3.1 107.73-3.66 109.34-4.71ZM129.21-7.25L129.21-7.25Q129.21-3.56 126.67-1.48 124.13 0.61 119.67 0.61L119.67 0.61Q117.37 0.61 115.43 0.13 113.49-0.34 112.73-0.66L112.73-0.66 112.73-7.3 115.27-7.3 115.88-3.05Q116.64-2.56 117.75-2.11 118.86-1.66 120.32-1.66L120.32-1.66Q122.47-1.66 123.64-2.86 124.82-4.05 124.82-5.54L124.82-5.54Q124.82-7.52 123.4-8.53 121.98-9.55 119.37-10.79L119.37-10.79 118.71-11.11Q115.98-12.4 114.53-13.81 113.07-15.21 113.07-17.46L113.07-17.46Q113.07-20.8 115.42-22.75 117.76-24.71 122.08-24.71L122.08-24.71Q124.28-24.71 126-24.3 127.72-23.9 128.48-23.56L128.48-23.56 128.48-17.65 125.87-17.65 125.48-21.14Q124.94-21.56 123.89-21.92 122.84-22.29 121.67-22.29L121.67-22.29Q119.62-22.29 118.62-21.35 117.61-20.41 117.61-18.95L117.61-18.95Q117.61-17.26 118.82-16.27 120.03-15.28 123.21-13.84L123.21-13.84Q125.82-12.65 127.51-11.17 129.21-9.69 129.21-7.25ZM179.47-13.21L179.47-13.21Q179.47-9.45 177.99-6.46 176.5-3.47 173.32-1.73 170.15 0 165.12 0L165.12 0 157.92 0 157.92-33.25 154.13-33.25 154.13-34.91 160.58-36.84 162.58-36.84 162.58-22.85Q163.43-23.27 165.35-23.99 167.27-24.71 169.46-24.71L169.46-24.71Q172.76-24.71 174.98-23.12 177.2-21.53 178.34-18.91 179.47-16.28 179.47-13.21ZM174.37-12.21L174.37-12.21Q174.37-16.94 172.37-19.35 170.37-21.75 166.73-21.75L166.73-21.75Q165.9-21.75 164.62-21.48 163.34-21.22 162.58-20.95L162.58-20.95 162.58-2.39Q162.58-2.39 163.45-2.37 164.31-2.34 165.02-2.34L165.02-2.34Q169.46-2.34 171.92-4.54 174.37-6.74 174.37-12.21ZM207.18-24.1L207.18-22.14 204.57-21.85 194.98 1.54Q194.66 2.34 193.99 3.85 193.31 5.35 192.4 6.92 191.48 8.5 190.43 9.55L190.43 9.55Q189.53 10.45 188.44 10.95 187.36 11.45 186.09 11.45L186.09 11.45Q184.31 11.45 183.37 10.58 182.43 9.72 182.43 8.59L182.43 8.59Q182.43 6.93 184.04 5.59L184.04 5.59 188.73 7.74Q189.56 6.91 190.39 5.49 191.22 4.08 191.89 2.56 192.56 1.05 192.92-0.05L192.92-0.05 184.43-21.85 181.67-22.14 181.67-24.1 192.73-24.1 192.73-22.14 190.34-22Q189.53-21.92 189.53-21.19L189.53-21.19Q189.53-21 189.58-20.9L189.58-20.9 195.39-6.15 201.32-20.9Q201.4-21.04 201.4-21.22L201.4-21.22Q201.4-21.95 200.64-22L200.64-22 198.27-22.14 198.27-24.1 207.18-24.1ZM263.67-16.21L263.67-14.04 261.13-13.79Q260.6-13.77 260.34-13.45 260.08-13.13 260.08-12.74L260.08-12.74 260.08-1.2Q260.08-1.2 258.58-0.7 257.08-0.2 254.69 0.31 252.29 0.81 249.58 0.81L249.58 0.81Q245.41 0.81 242.16-0.63 238.92-2.08 236.68-4.55 234.45-7.03 233.29-10.21 232.13-13.38 232.13-16.85L232.13-16.85Q232.13-22.09 234.31-26.04 236.5-29.98 240.56-32.17 244.63-34.35 250.22-34.35L250.22-34.35Q252.78-34.35 254.96-33.89 257.13-33.42 259.2-32.86L259.2-32.86 260.03-32.64 260.03-24.56 257.03-24.56 256.23-29.05Q256.15-29.49 255.86-29.8 255.57-30.1 255.22-30.25L255.22-30.25Q255.13-30.27 254.93-30.37L254.93-30.37Q254.17-30.71 252.89-31.13 251.61-31.54 250.02-31.54L250.02-31.54Q246.43-31.54 243.68-29.87 240.92-28.2 239.37-24.98 237.82-21.75 237.82-17.09L237.82-17.09Q237.82-9.89 241.3-5.94 244.77-2 250.63-2L250.63-2Q252.29-2 253.58-2.38 254.86-2.76 255.03-2.76L255.03-2.76 255.03-12.74Q255.03-13.13 254.77-13.45 254.52-13.77 253.98-13.79L253.98-13.79 250.63-14.04 250.63-16.21 263.67-16.21ZM287.72-5.54L287.72-2.49Q285.62-1.2 283.19-0.29 280.76 0.61 278.22 0.61L278.22 0.61Q275.19 0.61 272.54-0.74 269.89-2.1 268.26-4.86 266.62-7.62 266.62-11.79L266.62-11.79Q266.62-15.7 268.14-18.6 269.65-21.51 272.31-23.11 274.97-24.71 278.37-24.71L278.37-24.71Q283.03-24.71 285.37-21.81 287.72-18.92 287.72-14.45L287.72-14.45Q287.72-14.21 287.72-13.81 287.72-13.4 287.67-13.06L287.67-13.06 271.46-13.06Q271.46-11.16 271.86-9.27 272.26-7.37 273.21-5.83 274.17-4.3 275.78-3.37 277.39-2.44 279.81-2.44L279.81-2.44Q281.95-2.44 283.99-3.43 286.03-4.42 287.72-5.54L287.72-5.54ZM271.73-15.31L282.71-15.31 282.71-16.41Q282.71-18.87 281.53-20.56 280.34-22.24 277.85-22.24L277.85-22.24Q275.39-22.24 273.65-20.39 271.92-18.53 271.73-15.31L271.73-15.31ZM316.77-1.95L316.77 0 305.73 0 305.73-1.95 307.83-2.1Q308.27-2.15 308.58-2.44 308.88-2.73 308.88-3.2L308.88-3.2 308.88-16.21Q308.88-18.58 307.78-19.81 306.68-21.04 304.07-21.04L304.07-21.04Q302.66-21.04 301.25-20.64 299.85-20.24 298.58-19.6L298.58-19.6 298.58-3.2Q298.58-2.17 299.63-2.1L299.63-2.1 301.73-1.95 301.73 0 290.42 0 290.42-1.95 292.87-2.1Q293.92-2.17 293.92-3.2L293.92-3.2 293.92-20.56 290.42-20.56 290.42-22.19 296.53-24.1 298.58-24.1 298.58-21.61Q300.68-22.8 302.89-23.75 305.1-24.71 306.83-24.71L306.83-24.71Q310.1-24.71 311.81-22.67 313.52-20.63 313.52-16.99L313.52-16.99 313.52-3.2Q313.52-2.73 313.82-2.44 314.13-2.15 314.57-2.1L314.57-2.1 316.77-1.95ZM340.57-5.54L340.57-2.49Q338.47-1.2 336.04-0.29 333.61 0.61 331.07 0.61L331.07 0.61Q328.04 0.61 325.39-0.74 322.75-2.1 321.11-4.86 319.47-7.62 319.47-11.79L319.47-11.79Q319.47-15.7 320.99-18.6 322.5-21.51 325.16-23.11 327.82-24.71 331.22-24.71L331.22-24.71Q335.88-24.71 338.22-21.81 340.57-18.92 340.57-14.45L340.57-14.45Q340.57-14.21 340.57-13.81 340.57-13.4 340.52-13.06L340.52-13.06 324.31-13.06Q324.31-11.16 324.71-9.27 325.11-7.37 326.07-5.83 327.02-4.3 328.63-3.37 330.24-2.44 332.66-2.44L332.66-2.44Q334.81-2.44 336.84-3.43 338.88-4.42 340.57-5.54L340.57-5.54ZM324.58-15.31L335.56-15.31 335.56-16.41Q335.56-18.87 334.38-20.56 333.2-22.24 330.7-22.24L330.7-22.24Q328.24-22.24 326.51-20.39 324.77-18.53 324.58-15.31L324.58-15.31ZM361.32-23.95L361.32-18.99 359.36-18.99Q358.9-19.56 358.25-19.96 357.61-20.36 356.68-20.36L356.68-20.36Q355.48-20.36 354.23-19.53 352.97-18.7 351.67-17.26L351.67-17.26 351.67-3.2Q351.67-2.15 352.72-2.1L352.72-2.1 356.02-1.95 356.02 0 343.52 0 343.52-1.9 345.99-2.1Q346.42-2.15 346.73-2.44 347.04-2.73 347.04-3.2L347.04-3.2 347.04-20.56 343.42-20.56 343.42-22.19 349.62-24.1 351.67-24.1 351.67-19.65Q352.41-20.46 353.51-21.66 354.6-22.85 355.85-23.78 357.09-24.71 358.27-24.71L358.27-24.71Q359.05-24.71 359.95-24.46 360.85-24.22 361.32-23.95L361.32-23.95ZM386.44-1.95L386.44 0 379.04 0 378.38-2.95Q378.38-2.95 377.64-2.42 376.89-1.88 375.67-1.17 374.45-0.46 372.97 0.07 371.5 0.61 370.03 0.61L370.03 0.61Q367.32 0.61 365.43-1.2 363.54-3 363.54-6.15L363.54-6.15Q363.54-7.54 364.04-8.74 364.54-9.94 366.04-11.02 367.54-12.11 370.51-13.15 373.47-14.18 378.38-15.26L378.38-15.26 378.38-17.41Q378.38-22.34 373.72-22.34L373.72-22.34Q372.42-22.34 371.48-22.09 370.54-21.85 370.18-21.7L370.18-21.7 370.18-17.36 366.54-17.36Q365.86-17.36 365.27-17.61 364.68-17.87 364.68-18.8L364.68-18.8Q364.68-20.85 366.25-22.16 367.81-23.46 370.21-24.08 372.62-24.71 375.08-24.71L375.08-24.71Q378.19-24.71 379.89-23.74 381.6-22.78 382.29-21.08 382.97-19.38 382.97-17.21L382.97-17.21 382.97-3.2Q382.97-2.73 383.28-2.44 383.58-2.15 384.02-2.1L384.02-2.1 386.44-1.95ZM378.38-4.71L378.38-4.71 378.38-13.35Q375.01-12.52 373.02-11.68 371.03-10.84 370.06-10 369.08-9.16 368.77-8.29 368.47-7.42 368.47-6.49L368.47-6.49Q368.47-4.96 369.46-3.65 370.45-2.34 372.23-2.34L372.23-2.34Q373.23-2.34 374.3-2.7 375.38-3.05 376.31-3.53 377.23-4 377.81-4.36 378.38-4.71 378.38-4.71ZM403.92-3.05L403.92-3.05 403.92-1.05Q403.92-1.05 402.98-0.63 402.04-0.22 400.51 0.2 398.98 0.61 397.18 0.61L397.18 0.61Q394.37 0.61 393.09-0.72 391.81-2.05 391.81-5L391.81-5 391.81-21.61 388.61-21.61 388.61-23.24 392.03-24.85 394.27-30.15 396.47-30.15 396.47-24.1 403.52-24.1 403.52-21.61 396.47-21.61 396.47-7.64Q396.47-4.66 397.47-3.43 398.47-2.2 400.47-2.2L400.47-2.2Q401.94-2.2 402.93-2.62 403.92-3.05 403.92-3.05ZM415.14-32.35L415.14-32.35Q415.14-31.08 414.26-30.16 413.39-29.25 412.12-29.25L412.12-29.25Q410.85-29.25 409.93-30.16 409.02-31.08 409.02-32.35L409.02-32.35Q409.02-33.64 409.93-34.52 410.85-35.4 412.12-35.4L412.12-35.4Q413.39-35.4 414.26-34.52 415.14-33.64 415.14-32.35ZM417.71-1.95L417.71 0 405.96 0 405.96-1.95 408.4-2.1Q409.45-2.17 409.45-3.2L409.45-3.2 409.45-21.04 406.01-21.04 406.01-22.8 412.12-24.71 414.09-24.71 414.09-3.2Q414.09-2.73 414.4-2.44 414.7-2.15 415.14-2.1L415.14-2.1 417.71-1.95ZM445.37-24.1L445.37-22.14 442.7-21.85 433.96 0 430.72 0 422.66-21.85 419.9-22.14 419.9-24.1 430.96-24.1 430.96-22.14 428.57-22Q427.76-21.92 427.76-21.19L427.76-21.19Q427.76-21.09 427.81-20.9L427.81-20.9 433.4-5.25 439.55-20.9Q439.63-21.04 439.63-21.22L439.63-21.22Q439.63-21.95 438.87-22L438.87-22 436.62-22.14 436.62-24.1 445.37-24.1ZM468.65-5.54L468.65-2.49Q466.55-1.2 464.12-0.29 461.7 0.61 459.16 0.61L459.16 0.61Q456.13 0.61 453.48-0.74 450.83-2.1 449.2-4.86 447.56-7.62 447.56-11.79L447.56-11.79Q447.56-15.7 449.07-18.6 450.59-21.51 453.25-23.11 455.91-24.71 459.3-24.71L459.3-24.71Q463.97-24.71 466.31-21.81 468.65-18.92 468.65-14.45L468.65-14.45Q468.65-14.21 468.65-13.81 468.65-13.4 468.6-13.06L468.6-13.06 452.39-13.06Q452.39-11.16 452.8-9.27 453.2-7.37 454.15-5.83 455.1-4.3 456.72-3.37 458.33-2.44 460.74-2.44L460.74-2.44Q462.89-2.44 464.93-3.43 466.97-4.42 468.65-5.54L468.65-5.54ZM452.66-15.31L463.65-15.31 463.65-16.41Q463.65-18.87 462.46-20.56 461.28-22.24 458.79-22.24L458.79-22.24Q456.32-22.24 454.59-20.39 452.86-18.53 452.66-15.31L452.66-15.31ZM526.31-2.15L526.31 0 514.43 0 514.43-2.15 517.31-2.39Q517.5-2.39 517.67-2.65 517.84-2.91 517.84-3.13L517.84-3.13Q517.84-3.22 517.82-3.25L517.82-3.25 514.38-12.4 502.83-12.4 499.51-3.39Q499.48-3.34 499.48-3.25L499.48-3.25Q499.48-2.95 499.74-2.67 500-2.39 500.22-2.39L500.22-2.39 503.17-2.15 503.17 0 493.11 0 493.11-2.15 496.02-2.76 507.66-34.35 511.42-34.35 523.02-3.49Q523.21-2.98 523.36-2.81 523.51-2.64 524.07-2.54L524.07-2.54 526.31-2.15ZM503.71-14.79L513.47-14.79 508.57-27.91 503.71-14.79ZM541.4-2.15L541.4 0 528.22 0 528.22-2.15 531.19-2.34Q531.73-2.39 531.99-2.73 532.24-3.08 532.24-3.44L532.24-3.44 532.24-30.1Q532.24-30.47 531.99-30.8 531.73-31.13 531.19-31.15L531.19-31.15 528.22-31.35 528.22-33.54 541.4-33.54 541.4-31.35 538.35-31.15Q537.84-31.13 537.57-30.8 537.3-30.47 537.3-30.1L537.3-30.1 537.3-3.44Q537.3-3.08 537.57-2.73 537.84-2.39 538.35-2.34L538.35-2.34 541.4-2.15ZM592.96-1.95L592.96 0 585.02 0 585.02-2.86Q584.17-2.2 582.85-1.39 581.53-0.59 580.02 0.01 578.5 0.61 577.02 0.61L577.02 0.61Q573.79 0.61 571.95-1.33 570.11-3.27 570.11-7.5L570.11-7.5 570.11-21.04 566.61-21.04 566.61-22.75 572.77-24.71 574.77-24.71 574.77-8.45Q574.77-5.79 575.86-4.3 576.94-2.81 579.6-2.81L579.6-2.81Q581.14-2.81 582.63-3.33 584.12-3.86 585.02-4.3L585.02-4.3 585.02-21.04 581.51-21.04 581.51-22.75 587.61-24.71 589.66-24.71 589.66-3.2Q589.66-2.73 589.99-2.44 590.32-2.15 590.76-2.1L590.76-2.1 592.96-1.95ZM612.19-7.25L612.19-7.25Q612.19-3.56 609.65-1.48 607.12 0.61 602.65 0.61L602.65 0.61Q600.35 0.61 598.41 0.13 596.47-0.34 595.71-0.66L595.71-0.66 595.71-7.3 598.25-7.3 598.86-3.05Q599.62-2.56 600.73-2.11 601.84-1.66 603.31-1.66L603.31-1.66Q605.46-1.66 606.63-2.86 607.8-4.05 607.8-5.54L607.8-5.54Q607.8-7.52 606.38-8.53 604.97-9.55 602.35-10.79L602.35-10.79 601.7-11.11Q598.96-12.4 597.51-13.81 596.06-15.21 596.06-17.46L596.06-17.46Q596.06-20.8 598.4-22.75 600.74-24.71 605.06-24.71L605.06-24.71Q607.26-24.71 608.98-24.3 610.7-23.9 611.46-23.56L611.46-23.56 611.46-17.65 608.85-17.65 608.46-21.14Q607.92-21.56 606.87-21.92 605.82-22.29 604.65-22.29L604.65-22.29Q602.6-22.29 601.6-21.35 600.6-20.41 600.6-18.95L600.6-18.95Q600.6-17.26 601.81-16.27 603.01-15.28 606.19-13.84L606.19-13.84Q608.8-12.65 610.5-11.17 612.19-9.69 612.19-7.25ZM624.79-32.35L624.79-32.35Q624.79-31.08 623.91-30.16 623.03-29.25 621.76-29.25L621.76-29.25Q620.49-29.25 619.58-30.16 618.66-31.08 618.66-32.35L618.66-32.35Q618.66-33.64 619.58-34.52 620.49-35.4 621.76-35.4L621.76-35.4Q623.03-35.4 623.91-34.52 624.79-33.64 624.79-32.35ZM627.35-1.95L627.35 0 615.61 0 615.61-1.95 618.05-2.1Q619.1-2.17 619.1-3.2L619.1-3.2 619.1-21.04 615.66-21.04 615.66-22.8 621.76-24.71 623.74-24.71 623.74-3.2Q623.74-2.73 624.04-2.44 624.35-2.15 624.79-2.1L624.79-2.1 627.35-1.95ZM656.4-1.95L656.4 0 645.37 0 645.37-1.95 647.47-2.1Q647.91-2.15 648.21-2.44 648.52-2.73 648.52-3.2L648.52-3.2 648.52-16.21Q648.52-18.58 647.42-19.81 646.32-21.04 643.71-21.04L643.71-21.04Q642.29-21.04 640.89-20.64 639.48-20.24 638.21-19.6L638.21-19.6 638.21-3.2Q638.21-2.17 639.26-2.1L639.26-2.1 641.36-1.95 641.36 0 630.06 0 630.06-1.95 632.5-2.1Q633.55-2.17 633.55-3.2L633.55-3.2 633.55-20.56 630.06-20.56 630.06-22.19 636.16-24.1 638.21-24.1 638.21-21.61Q640.31-22.8 642.52-23.75 644.73-24.71 646.47-24.71L646.47-24.71Q649.74-24.71 651.45-22.67 653.16-20.63 653.16-16.99L653.16-16.99 653.16-3.2Q653.16-2.73 653.46-2.44 653.77-2.15 654.2-2.1L654.2-2.1 656.4-1.95ZM682.79-23.19L682.79-20.75 677.81-20.75Q678.37-19.85 678.76-18.77 679.15-17.7 679.15-16.26L679.15-16.26Q679.15-13.77 677.79-12 676.42-10.23 674.19-9.28 671.95-8.33 669.34-8.33L669.34-8.33Q669.1-8.33 668.85-8.33 668.61-8.33 668.36-8.35L668.36-8.35Q668.05-7.84 667.94-7.25 667.83-6.67 667.83-6.15L667.83-6.15Q667.83-5.69 667.87-5.37 667.92-5.05 667.95-5L667.95-5 668.66-4.93Q670.41-4.76 672.6-4.44 674.78-4.13 676.82-3.42 678.86-2.71 680.18-1.42 681.5-0.12 681.5 2L681.5 2Q681.5 4.37 679.76 6.53 678.03 8.69 675.09 10.07 672.15 11.45 668.51 11.45L668.51 11.45Q664.04 11.45 661.58 9.41 659.11 7.37 659.11 4.35L659.11 4.35Q659.11 2.17 660.4 0.48 661.7-1.22 664.41-1.71L664.41-1.71Q664.14-2.49 664.02-2.83 663.89-3.17 663.89-4L663.89-4Q663.89-4.98 664.49-6.16 665.09-7.35 666.41-8.69L666.41-8.69Q663.92-9.25 662.06-11.22 660.21-13.18 660.21-16.21L660.21-16.21Q660.21-20.14 662.98-22.42 665.75-24.71 670.24-24.71L670.24-24.71Q672.02-24.71 673.55-24.18 675.08-23.66 676.05-23.19L676.05-23.19 682.79-23.19ZM674.39-16.55L674.39-16.55Q674.39-18.14 673.86-19.53 673.32-20.92 672.29-21.79 671.27-22.66 669.75-22.66L669.75-22.66Q667.65-22.66 666.32-21.03 664.99-19.41 664.99-16.5L664.99-16.5Q664.99-13.99 666.19-12.19 667.39-10.4 669.75-10.4L669.75-10.4Q672-10.4 673.2-12.21 674.39-14.01 674.39-16.55ZM677.2 3.34L677.2 3.34Q677.2 1.78 676.11 0.93 675.03 0.07 673.42-0.34 671.8-0.76 670.17-0.94 668.53-1.12 667.41-1.34L667.41-1.34Q665.24-0.56 664.42 0.78 663.6 2.12 663.6 3.34L663.6 3.34Q663.6 4.54 664.3 5.9 664.99 7.25 666.45 8.2 667.9 9.16 670.14 9.16L670.14 9.16Q672.54 9.16 674.1 8.2 675.66 7.25 676.43 5.9 677.2 4.54 677.2 3.34ZM735.3-33.54L735.3-25.56 732.35-25.56 731.64-30.25Q731.47-31.1 730.81-31.1L730.81-31.1 723.66-31.1 723.66-3.44Q723.66-3.08 723.91-2.73 724.17-2.39 724.71-2.34L724.71-2.34 727.9-2.15 727.9 0 714.35 0 714.35-2.15 717.55-2.34Q718.09-2.39 718.35-2.73 718.6-3.08 718.6-3.44L718.6-3.44 718.6-31.1 711.4-31.1Q710.67-31.1 710.55-30.25L710.55-30.25 709.86-25.56 706.96-25.56 706.96-33.54 735.3-33.54ZM755.15-23.95L755.15-18.99 753.19-18.99Q752.73-19.56 752.08-19.96 751.44-20.36 750.51-20.36L750.51-20.36Q749.31-20.36 748.05-19.53 746.8-18.7 745.5-17.26L745.5-17.26 745.5-3.2Q745.5-2.15 746.55-2.1L746.55-2.1 749.85-1.95 749.85 0 737.35 0 737.35-1.9 739.82-2.1Q740.25-2.15 740.56-2.44 740.86-2.73 740.86-3.2L740.86-3.2 740.86-20.56 737.25-20.56 737.25-22.19 743.45-24.1 745.5-24.1 745.5-19.65Q746.24-20.46 747.33-21.66 748.43-22.85 749.68-23.78 750.92-24.71 752.1-24.71L752.1-24.71Q752.88-24.71 753.78-24.46 754.68-24.22 755.15-23.95L755.15-23.95ZM780.27-1.95L780.27 0 772.87 0 772.21-2.95Q772.21-2.95 771.47-2.42 770.72-1.88 769.5-1.17 768.28-0.46 766.8 0.07 765.33 0.61 763.86 0.61L763.86 0.61Q761.15 0.61 759.26-1.2 757.37-3 757.37-6.15L757.37-6.15Q757.37-7.54 757.87-8.74 758.37-9.94 759.87-11.02 761.37-12.11 764.34-13.15 767.3-14.18 772.21-15.26L772.21-15.26 772.21-17.41Q772.21-22.34 767.55-22.34L767.55-22.34Q766.25-22.34 765.31-22.09 764.37-21.85 764.01-21.7L764.01-21.7 764.01-17.36 760.37-17.36Q759.69-17.36 759.1-17.61 758.51-17.87 758.51-18.8L758.51-18.8Q758.51-20.85 760.08-22.16 761.64-23.46 764.04-24.08 766.45-24.71 768.91-24.71L768.91-24.71Q772.01-24.71 773.72-23.74 775.43-22.78 776.12-21.08 776.8-19.38 776.8-17.21L776.8-17.21 776.8-3.2Q776.8-2.73 777.11-2.44 777.41-2.15 777.85-2.1L777.85-2.1 780.27-1.95ZM772.21-4.71L772.21-4.71 772.21-13.35Q768.84-12.52 766.85-11.68 764.86-10.84 763.88-10 762.91-9.16 762.6-8.29 762.3-7.42 762.3-6.49L762.3-6.49Q762.3-4.96 763.29-3.65 764.28-2.34 766.06-2.34L766.06-2.34Q767.06-2.34 768.13-2.7 769.21-3.05 770.13-3.53 771.06-4 771.64-4.36 772.21-4.71 772.21-4.71ZM808.44-1.95L808.44 0 797.4 0 797.4-1.95 799.5-2.1Q799.94-2.15 800.25-2.44 800.55-2.73 800.55-3.2L800.55-3.2 800.55-16.21Q800.55-18.58 799.45-19.81 798.35-21.04 795.74-21.04L795.74-21.04Q794.33-21.04 792.92-20.64 791.52-20.24 790.25-19.6L790.25-19.6 790.25-3.2Q790.25-2.17 791.3-2.1L791.3-2.1 793.4-1.95 793.4 0 782.1 0 782.1-1.95 784.54-2.1Q785.59-2.17 785.59-3.2L785.59-3.2 785.59-20.56 782.1-20.56 782.1-22.19 788.2-24.1 790.25-24.1 790.25-21.61Q792.35-22.8 794.56-23.75 796.77-24.71 798.5-24.71L798.5-24.71Q801.77-24.71 803.48-22.67 805.19-20.63 805.19-16.99L805.19-16.99 805.19-3.2Q805.19-2.73 805.5-2.44 805.8-2.15 806.24-2.1L806.24-2.1 808.44-1.95ZM827.62-7.25L827.62-7.25Q827.62-3.56 825.09-1.48 822.55 0.61 818.08 0.61L818.08 0.61Q815.78 0.61 813.84 0.13 811.9-0.34 811.15-0.66L811.15-0.66 811.15-7.3 813.68-7.3 814.29-3.05Q815.05-2.56 816.16-2.11 817.27-1.66 818.74-1.66L818.74-1.66Q820.89-1.66 822.06-2.86 823.23-4.05 823.23-5.54L823.23-5.54Q823.23-7.52 821.81-8.53 820.4-9.55 817.79-10.79L817.79-10.79 817.13-11.11Q814.39-12.4 812.94-13.81 811.49-15.21 811.49-17.46L811.49-17.46Q811.49-20.8 813.83-22.75 816.17-24.71 820.5-24.71L820.5-24.71Q822.69-24.71 824.41-24.3 826.14-23.9 826.89-23.56L826.89-23.56 826.89-17.65 824.28-17.65 823.89-21.14Q823.35-21.56 822.3-21.92 821.25-22.29 820.08-22.29L820.08-22.29Q818.03-22.29 817.03-21.35 816.03-20.41 816.03-18.95L816.03-18.95Q816.03-17.26 817.24-16.27 818.45-15.28 821.62-13.84L821.62-13.84Q824.23-12.65 825.93-11.17 827.62-9.69 827.62-7.25ZM848.79-33.84L848.79-33.84Q848.79-32.84 848.29-32.26 847.79-31.69 847.23-31.45 846.67-31.2 846.47-31.15L846.47-31.15Q846.4-31.23 845.7-31.71 845.01-32.2 844.14-32.81 843.27-33.42 842.6-33.9 841.93-34.38 841.88-34.4L841.88-34.4Q840.81-33.84 839.87-32.13 838.93-30.42 838.93-26.9L838.93-26.9 838.93-23.71 845.13-23.71 845.13-21.14 838.93-21.14 838.93-3.2Q838.93-2.73 839.23-2.43 839.54-2.12 839.98-2.1L839.98-2.1 842.93-1.95 842.93 0 830.77 0 830.77-1.95 833.24-2.1Q833.68-2.15 833.98-2.44 834.29-2.73 834.29-3.2L834.29-3.2 834.29-21.14 831.09-21.14 831.09-22.9 834.29-23.8Q834.29-26.27 834.67-27.89 835.04-29.52 835.97-31.3L835.97-31.3Q837.44-34.13 839.74-35.49 842.05-36.84 844.49-36.84L844.49-36.84Q846.62-36.84 847.7-35.95 848.79-35.06 848.79-33.84ZM871.13-12.01L871.13-12.01Q871.13-8.47 869.66-5.6 868.2-2.73 865.52-1.06 862.85 0.61 859.19 0.61L859.19 0.61Q855.55 0.61 852.89-1.05 850.23-2.71 848.79-5.57 847.35-8.42 847.35-12.01L847.35-12.01Q847.35-15.58 848.8-18.46 850.25-21.34 852.95-23.02 855.65-24.71 859.33-24.71L859.33-24.71Q863.07-24.71 865.71-23 868.34-21.29 869.73-18.41 871.13-15.53 871.13-12.01ZM865.93-12.06L865.93-12.06Q865.93-14.79 865.21-17.16 864.49-19.53 863.01-21 861.53-22.46 859.28-22.46L859.28-22.46Q856.97-22.46 855.49-21 854.01-19.53 853.3-17.16 852.6-14.79 852.6-12.06L852.6-12.06Q852.6-9.35 853.32-6.97 854.04-4.59 855.51-3.13 856.99-1.66 859.24-1.66L859.24-1.66Q861.53-1.66 863.01-3.13 864.49-4.59 865.21-6.96 865.93-9.33 865.93-12.06ZM891.88-23.95L891.88-18.99 889.92-18.99Q889.46-19.56 888.81-19.96 888.16-20.36 887.24-20.36L887.24-20.36Q886.04-20.36 884.78-19.53 883.53-18.7 882.23-17.26L882.23-17.26 882.23-3.2Q882.23-2.15 883.28-2.1L883.28-2.1 886.58-1.95 886.58 0 874.08 0 874.08-1.9 876.54-2.1Q876.98-2.15 877.29-2.44 877.59-2.73 877.59-3.2L877.59-3.2 877.59-20.56 873.98-20.56 873.98-22.19 880.18-24.1 882.23-24.1 882.23-19.65Q882.96-20.46 884.06-21.66 885.16-22.85 886.41-23.78 887.65-24.71 888.82-24.71L888.82-24.71Q889.6-24.71 890.51-24.46 891.41-24.22 891.88-23.95L891.88-23.95ZM933.79-1.95L933.79 0 922.59 0 922.59-1.95 924.69-2.1Q925.74-2.17 925.74-3.2L925.74-3.2 925.74-15.94Q925.74-18.26 924.77-19.65 923.81-21.04 921.29-21.04L921.29-21.04Q920.05-21.04 918.57-20.65 917.09-20.26 915.95-19.65L915.95-19.65 915.95-3.2Q915.95-2.17 916.99-2.1L916.99-2.1 919.09-1.95 919.09 0 908.13 0 908.13-1.95 910.23-2.1Q911.28-2.17 911.28-3.2L911.28-3.2 911.28-16.26Q911.28-18.38 910.28-19.71 909.28-21.04 906.89-21.04L906.89-21.04Q905.47-21.04 903.93-20.57 902.4-20.09 901.54-19.6L901.54-19.6 901.54-3.2Q901.54-2.17 902.59-2.1L902.59-2.1 904.69-1.95 904.69 0 893.39 0 893.39-1.95 895.83-2.1Q896.88-2.17 896.88-3.2L896.88-3.2 896.88-20.56 893.44-20.56 893.44-22.19 899.49-24.1 901.54-24.1 901.54-21.61Q902.66-22.29 904.07-23 905.47-23.71 906.94-24.21 908.4-24.71 909.7-24.71L909.7-24.71Q911.87-24.71 913.21-23.6 914.55-22.49 915.19-21.24L915.19-21.24Q916.19-21.88 917.73-22.69 919.27-23.51 920.91-24.11 922.56-24.71 923.88-24.71L923.88-24.71Q926.52-24.71 927.91-23.5 929.3-22.29 929.81-20.52 930.32-18.75 930.32-17.04L930.32-17.04 930.32-3.2Q930.32-2.73 930.63-2.44 930.94-2.15 931.37-2.1L931.37-2.1 933.79-1.95ZM957.69-5.54L957.69-2.49Q955.59-1.2 953.16-0.29 950.73 0.61 948.19 0.61L948.19 0.61Q945.17 0.61 942.52-0.74 939.87-2.1 938.23-4.86 936.6-7.62 936.6-11.79L936.6-11.79Q936.6-15.7 938.11-18.6 939.62-21.51 942.29-23.11 944.95-24.71 948.34-24.71L948.34-24.71Q953-24.71 955.35-21.81 957.69-18.92 957.69-14.45L957.69-14.45Q957.69-14.21 957.69-13.81 957.69-13.4 957.64-13.06L957.64-13.06 941.43-13.06Q941.43-11.16 941.83-9.27 942.24-7.37 943.19-5.83 944.14-4.3 945.75-3.37 947.36-2.44 949.78-2.44L949.78-2.44Q951.93-2.44 953.97-3.43 956.01-4.42 957.69-5.54L957.69-5.54ZM941.7-15.31L952.69-15.31 952.69-16.41Q952.69-18.87 951.5-20.56 950.32-22.24 947.83-22.24L947.83-22.24Q945.36-22.24 943.63-20.39 941.89-18.53 941.7-15.31L941.7-15.31ZM978.44-23.95L978.44-18.99 976.49-18.99Q976.02-19.56 975.38-19.96 974.73-20.36 973.8-20.36L973.8-20.36Q972.61-20.36 971.35-19.53 970.09-18.7 968.8-17.26L968.8-17.26 968.8-3.2Q968.8-2.15 969.85-2.1L969.85-2.1 973.14-1.95 973.14 0 960.64 0 960.64-1.9 963.11-2.1Q963.55-2.15 963.85-2.44 964.16-2.73 964.16-3.2L964.16-3.2 964.16-20.56 960.54-20.56 960.54-22.19 966.75-24.1 968.8-24.1 968.8-19.65Q969.53-20.46 970.63-21.66 971.73-22.85 972.97-23.78 974.22-24.71 975.39-24.71L975.39-24.71Q976.17-24.71 977.07-24.46 977.98-24.22 978.44-23.95L978.44-23.95ZM1043.72-2.15L1043.72 0 1031.1 0 1031.1-2.15 1033.76-2.34Q1034.29-2.39 1034.58-2.73 1034.86-3.08 1034.86-3.44L1034.86-3.44 1034.86-31.01 1023.36 0 1020.87 0 1009.76-30.54 1009.76-3.44Q1009.76-3.08 1010.04-2.73 1010.32-2.39 1010.86-2.34L1010.86-2.34 1013.71-2.15 1013.71 0 1002.9 0 1002.9-2.15 1005.75-2.34Q1006.29-2.39 1006.55-2.73 1006.8-3.08 1006.8-3.44L1006.8-3.44 1006.8-30.1Q1006.8-30.47 1006.55-30.82 1006.29-31.18 1005.75-31.2L1005.75-31.2 1002.9-31.4 1002.9-33.54 1014.1-33.54 1014.1-32.2 1023.16-7.64 1032.22-32.06 1032.22-33.54 1043.72-33.54 1043.72-31.4 1041.01-31.2Q1040.47-31.18 1040.19-30.82 1039.91-30.47 1039.91-30.1L1039.91-30.1 1039.91-3.44Q1039.91-3.08 1040.19-2.73 1040.47-2.39 1041.01-2.34L1041.01-2.34 1043.72-2.15ZM1070.74-12.01L1070.74-12.01Q1070.74-8.47 1069.28-5.6 1067.81-2.73 1065.14-1.06 1062.47 0.61 1058.8 0.61L1058.8 0.61Q1055.17 0.61 1052.5-1.05 1049.84-2.71 1048.4-5.57 1046.96-8.42 1046.96-12.01L1046.96-12.01Q1046.96-15.58 1048.42-18.46 1049.87-21.34 1052.57-23.02 1055.26-24.71 1058.95-24.71L1058.95-24.71Q1062.69-24.71 1065.32-23 1067.96-21.29 1069.35-18.41 1070.74-15.53 1070.74-12.01ZM1065.54-12.06L1065.54-12.06Q1065.54-14.79 1064.82-17.16 1064.1-19.53 1062.62-21 1061.15-22.46 1058.9-22.46L1058.9-22.46Q1056.58-22.46 1055.1-21 1053.63-19.53 1052.92-17.16 1052.21-14.79 1052.21-12.06L1052.21-12.06Q1052.21-9.35 1052.93-6.97 1053.65-4.59 1055.13-3.13 1056.61-1.66 1058.85-1.66L1058.85-1.66Q1061.15-1.66 1062.62-3.13 1064.1-4.59 1064.82-6.96 1065.54-9.33 1065.54-12.06ZM1099.35-1.95L1099.35 0 1091.49 0 1091.49-2.66Q1089.78-1.34 1087.85-0.37 1085.93 0.61 1083.75 0.61L1083.75 0.61Q1081.24 0.61 1079.42-0.45 1077.6-1.51 1076.44-3.27 1075.28-5.03 1074.72-7.15 1074.16-9.28 1074.16-11.4L1074.16-11.4Q1074.16-14.79 1075.55-17.83 1076.94-20.87 1079.77-22.79 1082.6-24.71 1086.9-24.71L1086.9-24.71Q1088.1-24.71 1089.5-24.48 1090.91-24.24 1091.49-24.1L1091.49-24.1 1091.49-33.25 1087.71-33.25 1087.71-34.91 1094.15-36.84 1096.15-36.84 1096.15-3.2Q1096.15-2.17 1097.2-2.1L1097.2-2.1 1099.35-1.95ZM1091.49-4.54L1091.49-4.54 1091.49-21.56Q1090.86-21.78 1089.6-22.03 1088.34-22.29 1087.24-22.29L1087.24-22.29Q1083.53-22.29 1081.31-19.54 1079.09-16.8 1079.09-12.26L1079.09-12.26Q1079.09-8.18 1080.99-5.49 1082.9-2.81 1086.34-2.81L1086.34-2.81Q1087.85-2.81 1089.18-3.38 1090.51-3.96 1091.49-4.54ZM1123.45-5.54L1123.45-2.49Q1121.35-1.2 1118.92-0.29 1116.49 0.61 1113.95 0.61L1113.95 0.61Q1110.92 0.61 1108.27-0.74 1105.62-2.1 1103.99-4.86 1102.35-7.62 1102.35-11.79L1102.35-11.79Q1102.35-15.7 1103.87-18.6 1105.38-21.51 1108.04-23.11 1110.7-24.71 1114.1-24.71L1114.1-24.71Q1118.76-24.71 1121.1-21.81 1123.45-18.92 1123.45-14.45L1123.45-14.45Q1123.45-14.21 1123.45-13.81 1123.45-13.4 1123.4-13.06L1123.4-13.06 1107.19-13.06Q1107.19-11.16 1107.59-9.27 1107.99-7.37 1108.95-5.83 1109.9-4.3 1111.51-3.37 1113.12-2.44 1115.54-2.44L1115.54-2.44Q1117.69-2.44 1119.72-3.43 1121.76-4.42 1123.45-5.54L1123.45-5.54ZM1107.46-15.31L1118.44-15.31 1118.44-16.41Q1118.44-18.87 1117.26-20.56 1116.07-22.24 1113.58-22.24L1113.58-22.24Q1111.12-22.24 1109.38-20.39 1107.65-18.53 1107.46-15.31L1107.46-15.31ZM1138.65-1.95L1138.65 0 1126.5 0 1126.5-1.95 1129.16-2.1Q1129.5-2.1 1129.88-2.47 1130.26-2.83 1130.26-3.15L1130.26-3.15 1130.26-33.25 1126.45-33.25 1126.45-34.91 1132.84-36.84 1134.89-36.84 1134.89-3.15Q1134.89-2.83 1135.26-2.47 1135.63-2.1 1135.94-2.1L1135.94-2.1 1138.65-1.95Z" opacity="1" transform="matrix(1,0,0,1,0,0)" fill="#ffffff" class="slogan-text-1" data-fill-palette-color="secondary" id="text-1"></path></svg></g></svg></g></svg></g></svg></g><g transform="matrix(1,0,0,1,418.4670309982245,0)"><svg viewBox="0 0 169.32964787820998 169.32964787820998" height="169.32964787820998" width="169.32964787820998"><g><svg></svg></g><g id="icon-0"><svg viewBox="0 0 169.32964787820998 169.32964787820998" height="169.32964787820998" width="169.32964787820998"><g><path d="M0 84.665c0-46.759 37.906-84.665 84.665-84.665 46.759 0 84.665 37.906 84.665 84.665 0 46.759-37.906 84.665-84.665 84.665-46.759 0-84.665-37.906-84.665-84.665zM84.665 164.947c44.338 0 80.282-35.943 80.282-80.282 0-44.338-35.943-80.282-80.282-80.282-44.338 0-80.282 35.943-80.282 80.282 0 44.338 35.943 80.282 80.282 80.282z" data-fill-palette-color="accent" fill="#ffffff" stroke="transparent"></path></g><g transform="matrix(1,0,0,1,36.53885754069447,36.53887264767724)"><svg viewBox="0 0 96.25193279682104 96.25190258285551" height="96.25190258285551" width="96.25193279682104"><g><svg xmlns="http://www.w3.org/2000/svg" viewBox="1.9999998929224292 2 60.00001883430751 60" x="0" y="0" height="96.25190258285551" width="96.25193279682104" class="icon-dxe-0" data-fill-palette-color="accent" id="dxe-0"><path d="M59.6 11.5A3 3 0 0 1 60 13V43H4V13A3 3 0 0 1 6.249 10.094L5.749 8.158A5 5 0 0 0 2 13V48A5.006 5.006 0 0 0 7 53H25.613L23.28 60H21V62H43V60H40.72L38.387 53H57A5.006 5.006 0 0 0 62 48V13A5 5 0 0 0 61.33 10.5ZM38.612 60H25.388L27.721 53H36.279ZM60 48A3 3 0 0 1 57 51H7A3 3 0 0 1 4 48V45H60Z" fill="#ffffff" data-fill-palette-color="accent"></path><path d="M58.75 2A3.26 3.26 0 0 0 56.801 2.65L55 4A5.01 5.01 0 0 0 51 2H13A5.006 5.006 0 0 0 8 7V41H10V7A3 3 0 0 1 13 4H51A3 3 0 0 1 53.38 5.216L43.851 12.363A39.7 39.7 0 0 0 33.279 24.263L26.5 28.132A1 1 0 0 0 26 28.89L25 37.89A1 1 0 0 0 26 39 1 1 0 0 0 26.11 38.994L35.11 37.994A1 1 0 0 0 35.868 37.494L39.74 30.719A39.7 39.7 0 0 0 51.64 20.148L54 17V41H56V14.333L61.35 7.2A3.25 3.25 0 0 0 58.75 2M34.384 36.062L28.723 36.691 31.489 33.925A2 2 0 0 0 32 34 2 2 0 1 0 30 32 2 2 0 0 0 30.075 32.511L27.309 35.277 27.937 29.616 33.837 26.247 37.757 30.167ZM39.161 28.747L37.207 26.793 35.253 24.838C35.523 24.387 35.806 23.945 36.093 23.507L40.493 27.907C40.055 28.194 39.613 28.477 39.161 28.747M59.75 6L50.037 18.95A37.7 37.7 0 0 1 42.166 26.75L37.249 21.833A37.7 37.7 0 0 1 45.049 13.96L58 4.249A1.25 1.25 0 0 1 59.75 6" fill="#ffffff" data-fill-palette-color="accent"></path><path d="M44.539 16.928L45.839 18.452Q46.623 17.786 47.455 17.163L46.255 15.563Q45.372 16.221 44.539 16.928" fill="#ffffff" data-fill-palette-color="accent"></path><path d="M40 21.55L41.549 22.817A34 34 0 0 1 44.391 19.752L43.008 18.3A36 36 0 0 0 40 21.55" fill="#ffffff" data-fill-palette-color="accent"></path><rect x="13" y="7" width="2" height="2" fill="#ffffff" data-fill-palette-color="accent"></rect><rect x="17" y="7" width="2" height="2" fill="#ffffff" data-fill-palette-color="accent"></rect><rect x="21" y="7" width="2" height="2" fill="#ffffff" data-fill-palette-color="accent"></rect><rect x="13" y="12" width="26" height="2" fill="#ffffff" data-fill-palette-color="accent"></rect><rect x="21" y="17" width="13" height="2" fill="#ffffff" data-fill-palette-color="accent"></rect><rect x="13" y="22" width="18" height="2" fill="#ffffff" data-fill-palette-color="accent"></rect><rect x="13" y="27" width="11" height="2" fill="#ffffff" data-fill-palette-color="accent"></rect><rect x="13" y="32" width="10" height="2" fill="#ffffff" data-fill-palette-color="accent"></rect><rect x="13" y="37" width="10" height="2" fill="#ffffff" data-fill-palette-color="accent"></rect><rect x="47" y="27" width="4" height="2" fill="#ffffff" data-fill-palette-color="accent"></rect><rect x="41" y="32" width="10" height="2" fill="#ffffff" data-fill-palette-color="accent"></rect><rect x="39" y="37" width="12" height="2" fill="#ffffff" data-fill-palette-color="accent"></rect><rect x="13" y="17" width="6" height="2" fill="#ffffff" data-fill-palette-color="accent"></rect></svg></g></svg></g></svg></g></svg></g></svg></g><defs></defs></svg><rect width="395.52" height="113.93950448445558" fill="none" stroke="none" visibility="hidden"></rect></g></svg></g></svg>